<mxfile host="app.diagrams.net" modified="2023-05-11T20:41:45.210Z" agent="Mozilla/5.0 (Macintosh; Intel Mac OS X 10_15_7) AppleWebKit/537.36 (KHTML, like Gecko) Chrome/113.0.0.0 Safari/537.36" version="21.2.9" etag="2GYHxSmzfxpzBZ05q5pm" type="github">
  <diagram name="Page-1" id="M9qUnnNifTUSYt8mYKxd">
    <mxGraphModel>
      <root>
        <mxCell id="0" />
        <mxCell id="1" parent="0" />
      </root>
    </mxGraphModel>
  </diagram>
</mxfile>
